HIERARCHY
ROOT pelvis
{
  OFFSET 0 100 0
  CHANNELS 6 Xposition Yposition Zposition Zrotation Xrotation Yrotation
  JOINT pelvis_right_femur
  {
    OFFSET -10.78128 -3.44521 -0.5502486
    CHANNELS 3 Zrotation Xrotation Yrotation
    JOINT right_femur_tibia
    {
      OFFSET -0.8047443 -44.0398 -0.1307829
      CHANNELS 3 Zrotation Xrotation Yrotation
      JOINT right_tibia_foot
      {
        OFFSET 3.006224 -47.83518 -5
        CHANNELS 3 Zrotation Xrotation Yrotation
        End Site
        {
          OFFSET 0 -5 15
        }
      }
    }
  }
  JOINT pelvis_left_femur
  {
    OFFSET 10.78128 -3.44521 -0.5502486
    CHANNELS 3 Zrotation Xrotation Yrotation
    JOINT left_femur_tibia
    {
      OFFSET 0.8047443 -44.0398 -0.1307829
      CHANNELS 3 Zrotation Xrotation Yrotation
      JOINT left_tibia_foot
      {
        OFFSET -4.370144 -48.10324 -4.275266
        CHANNELS 3 Zrotation Xrotation Yrotation
        End Site
        {
          OFFSET 0 -5 15
        }
      }
    }
  }
  JOINT pelvis_spine1
  {
    OFFSET 0 6.468898 -3.129235
    CHANNELS 3 Zrotation Xrotation Yrotation
    JOINT spine1
    {
      OFFSET 0 23.15396 4.99043
      CHANNELS 3 Zrotation Xrotation Yrotation
      JOINT spine2
      {
        OFFSET 0 20.79997 -5.064912
        CHANNELS 3 Zrotation Xrotation Yrotation
        JOINT neck
        {
          OFFSET 0 14.38658 9.616178
          CHANNELS 3 Zrotation Xrotation Yrotation
          End Site
          {
            OFFSET 0 20 0
          }
        }
      }
      JOINT right_manubrium
      {
        OFFSET -5.722621 16.35077 3.967754
        CHANNELS 3 Zrotation Xrotation Yrotation
        JOINT right_clavicle
        {
          OFFSET -13.16364 1.694482 -4.693211
          CHANNELS 3 Zrotation Xrotation Yrotation
          JOINT right_humerus
          {
            OFFSET -28.5034 -0.3100689 -2.792744
            CHANNELS 3 Zrotation Xrotation Yrotation
            JOINT right_radius
            {
              OFFSET -25.15693 0.02248979 -1.271978
              CHANNELS 3 Zrotation Xrotation Yrotation
              End Site
              {
                OFFSET -15 0 0
              }
            }
          }
        }
      }
      JOINT left_manubrium
      {
        OFFSET 5.722621 16.35077 3.967754
        CHANNELS 3 Zrotation Xrotation Yrotation
        JOINT left_clavicle
        {
          OFFSET 13.16364 1.694482 -4.693211
          CHANNELS 3 Zrotation Xrotation Yrotation
          JOINT left_humerus
          {
            OFFSET 29.39168 -1.063119 -2.237045
            CHANNELS 3 Zrotation Xrotation Yrotation
            JOINT left_radius
            {
              OFFSET 24.59957 -0.9528479 0.9047498
              CHANNELS 3 Zrotation Xrotation Yrotation
              End Site
              {
                OFFSET 15 -0 -0
              }
            }
          }
        }
      }
    }
  }
}
MOTION
Frames: 19
Frame Time: 0.0416666666667
0 103.5113 0 0.6259221 -2.865392 0.09693684 2.857001 -13.79402 8.091488 -0 41.40763 -0 -7.884128 -14.84058 -4.120435 -6.039087 12.70318 -24.04594 -0 6.743743 -0 2.221274 -18.92298 24.91792 -1.569705 -2.655252 4.573294 -0.4273949 8.261 -7.481532 1.484783 21.76388 8.688108 6.126781 -20.6943 8.464699 6.646213 -18.58802 10.43925 88.69216 36.33639 -24.10291 -0 0 17.25933 -7.232477 8.175079 2.470536 7.664981 -21.82423 -3.655121 -99.45386 42.67631 27.0267 0 0 -27.11339 -11.40834 17.09437 29.06878
0.05437075 103.9048 1.486663 0.1599809 -2.219438 0.1218793 3.903621 -15.38085 8.784867 -0 41.71643 -0 -8.015914 -15.12848 -4.571502 -5.668182 12.90358 -24.52039 -0 6.678794 -0 0.2666432 -20.45349 24.34117 -1.436503 -2.500915 4.481844 -0.2580742 8.160333 -7.52873 1.48919 21.72476 8.629141 6.036182 -21.03692 8.492298 6.615055 -18.43804 10.43357 88.62669 36.26017 -24.06372 -0 0 16.98045 -7.174214 8.32262 2.524104 7.604886 -21.78037 -3.531262 -99.18379 42.34024 26.71866 0 0 -26.9698 -10.85504 17.09687 28.60649
0.227731 103.821 3.555308 -0.4078289 0.5159895 0.182033 5.169809 -24.93155 7.924035 -0 33.29149 -0 -5.890978 -11.43727 -4.42975 -5.821011 12.48036 -21.45121 -0 5.994887 -0 1.761389 -22.21378 22.30952 -0.1035452 -0.2789534 4.041277 1.87194 7.553045 -7.674298 1.107081 21.53021 7.846124 4.590585 -24.9928 8.454375 6.099582 -16.80532 10.84082 87.39449 36.88038 -22.29004 -0 0 12.4306 -9.282375 11.26118 5.121867 6.235976 -21.10891 -1.858461 -94.62677 34.76231 22.35269 0 0 -23.97301 -0.8972408 15.52722 19.03037
0.3888271 103.6732 5.64533 -0.857403 2.380746 0.2506952 6.725237 -28.8041 8.962243 -0 30.38596 -0 -5.447693 -11.31535 -4.354009 -5.788802 12.65885 -21.85135 -0 6.308291 -0 2.149412 -23.34214 22.31021 -0.2693875 -0.410438 3.400696 2.189206 7.19744 -8.015763 1.173247 21.19857 8.016696 4.822533 -25.27883 8.570005 6.422298 -16.47752 10.81386 87.2772 36.14197 -22.79167 -0 0 12.67921 -7.579217 10.28824 4.587626 6.350821 -20.91306 -2.116386 -94.62334 35.73355 21.91842 0 0 -24.55665 -2.021314 15.48344 19.9321
0.5472394 103.4459 8.104562 -1.275083 4.453031 0.4256475 8.201255 -33.44099 8.975346 -0 24.94274 -0 -5.562667 -9.354287 -3.391896 -5.888479 12.91496 -21.62405 -0 7.438226 -0 3.223203 -24.29847 21.97089 -0.3931838 -0.4164183 2.823415 2.606913 6.857819 -8.319203 1.185548 20.8435 8.133086 4.947385 -25.74125 8.645996 6.686778 -16.1072 10.84021 86.98982 35.55789 -23.0118 -0 0 12.6738 -6.257379 9.558781 4.41205 6.365136 -20.66555 -2.272677 -94.23704 35.91678 21.20918 0 0 -24.9269 -2.298128 15.16212 19.91712
0.7012956 103.0912 11.24523 -1.47148 5.520474 0.7772992 8.577819 -36.34437 7.124825 -0 19.2464 -0 -6.568935 -6.048376 -1.7061 -6.022641 13.39422 -20.52953 -0 9.376969 -0 3.871122 -24.58724 20.85382 -0.4797011 -0.6601473 2.570866 2.606007 6.661276 -8.489478 1.301543 20.58169 8.27282 5.169948 -25.75546 8.797145 6.902105 -16.03937 10.73008 86.86009 35.10315 -23.30346 -0 0 13.27505 -5.041584 8.926158 3.845537 6.673632 -20.65347 -2.374101 -94.52448 36.83822 21.24154 0 0 -25.49737 -3.161488 15.36571 20.72822
0.8346875 102.6287 15.60894 -1.461883 5.190743 1.369045 7.629225 -36.99258 2.807729 -0 13.1684 -0 -8.355012 -1.278503 0.4837739 -6.026913 14.59139 -17.74656 -0 13.28973 -0 2.949748 -23.8778 17.95383 -0.5111003 -0.8073327 2.527837 2.528708 6.608395 -8.538327 1.372299 20.47564 8.34364 5.288421 -25.68294 8.880705 6.996699 -16.05781 10.65893 86.80904 34.94137 -23.41651 -0 0 13.64238 -4.549067 8.690014 3.536997 6.8682 -20.69711 -2.400511 -94.75159 37.3249 21.36816 0 0 -25.77211 -3.590481 15.53893 21.17252
0.9543482 102.3728 21.32269 -1.470693 3.474645 1.952299 6.804755 -34.09424 -1.357385 -0 10.57108 -0 -9.945037 2.698848 1.845323 -5.76772 15.86876 -13.87216 -0 20.38264 -0 0.5926711 -21.04582 14.36172 -0.4797722 -0.9085802 2.74543 2.29168 6.738957 -8.44643 1.411884 20.57576 8.342732 5.316468 -25.41189 8.898089 6.949105 -16.22996 10.6057 86.95576 35.08458 -23.45175 -0 0 13.86236 -4.78738 8.847305 3.374378 6.988171 -20.85399 -2.364054 -95.10442 37.61693 21.781 0 0 -25.79541 -3.823182 15.82209 21.54945
1.148532 102.7577 27.69537 -1.998546 1.389574 1.984977 7.71635 -28.60591 -2.31115 -0 13.48656 -0 -10.77025 3.748477 1.681403 -5.070301 14.37526 -10.58055 -0 31.36776 -0 -1.178695 -15.3834 12.09983 -0.3705855 -0.915395 3.244611 1.909833 7.066662 -8.186629 1.393125 20.92998 8.235794 5.206368 -24.94579 8.809787 6.70072 -16.56957 10.59154 87.34348 35.59382 -23.38647 -0 0 13.81994 -5.969725 9.483815 3.485717 6.961979 -21.1058 -2.264255 -95.51896 37.57468 22.4691 0 0 -25.50048 -3.769104 16.15557 21.76978
1.413912 103.5948 33.90752 -2.416992 -0.7199198 1.453618 8.414503 -22.19868 -1.435465 -0 15.96131 -0 -11.52563 1.966427 0.6694054 -3.998716 9.1938 -8.707249 -0 43.38922 -0 -1.830309 -9.296965 11.00381 -0.1719503 -0.8714583 4.033888 1.341465 7.550326 -7.751824 1.345842 21.47956 8.038652 4.989442 -24.26319 8.647644 6.249033 -17.09824 10.57585 87.90541 36.4501 -23.19509 -0 0 13.67278 -8.044697 10.59716 3.847902 6.881945 -21.4625 -2.08141 -96.01268 37.26829 23.44851 0 0 -25.0361 -3.487129 16.57161 21.90588
1.490012 104.7111 39.98537 -1.84942 -3.326049 0.7663363 7.812206 -15.47981 -0.5265366 -0 14.37588 -0 -12.07329 -0.1850638 -1.187407 -3.166705 4.805779 -7.366968 -0 53.78772 -0 -2.400056 -5.968136 11.48867 0.041792 -0.7289327 4.907874 0.7641242 8.012377 -7.211817 1.260454 22.07761 7.777373 4.684657 -23.5653 8.417156 5.658994 -17.68483 10.57203 88.33176 37.47928 -22.69492 -0 0 13.44738 -10.73713 11.94595 4.633176 6.68522 -21.72194 -1.868837 -96.28196 36.5638 24.37957 0 0 -24.47001 -2.949222 16.78534 21.76701
1.317095 106.0589 45.89798 -1.066538 -5.878926 -0.01050536 7.116769 -9.536787 0.6646154 -0 13.12563 -0 -11.6461 -2.442071 -3.208387 -2.759351 1.667404 -6.730067 -0 59.39714 -0 -2.931128 -5.275693 13.68968 0.06952119 -0.3420786 5.602309 0.462427 8.261261 -6.622622 1.088849 22.60833 7.487283 4.293273 -23.10184 8.079933 5.064169 -18.12336 10.66852 87.99915 38.49306 -21.29462 -0 0 13.06839 -13.94892 13.21319 6.257613 6.092079 -21.48837 -1.738716 -95.83768 35.09259 24.77365 0 0 -23.48398 -2.076188 16.27018 20.96354
1.016844 107.4332 51.59397 -0.5698004 -7.637616 -0.8876902 6.612817 -4.722743 1.727236 -0 12.77347 -0 -10.6428 -4.602399 -4.445532 -2.41138 -1.750939 -6.490557 -0 60.34009 -0 -3.291475 -5.424417 15.75574 -0.2725269 0.2239705 6.117231 0.4252376 8.307401 -5.962929 0.8820315 22.97188 7.245498 3.90569 -22.72097 7.661362 4.646735 -18.36293 10.90071 86.26625 39.28829 -18.30615 -0 0 12.88488 -17.84986 14.35907 8.882022 5.092845 -20.61616 -1.730888 -94.6232 32.70264 24.57197 0 0 -21.73915 -1.136577 14.93351 19.58016
0.65854 108.5861 57.15811 -0.2939848 -8.884874 -1.853724 6.179151 -0.6165707 2.685187 -0 12.67907 -0 -9.287155 -6.537342 -5.225706 -1.944453 -5.167342 -6.276335 -0 58.24413 -0 -3.633562 -5.803674 17.51451 -0.9652321 0.6485503 6.608487 0.4008634 8.341699 -5.261369 0.7978046 23.03325 7.125313 3.67176 -22.01478 7.290159 4.56418 -18.49748 11.21297 83.15898 39.36019 -13.89433 -0 0 13.57235 -22.17608 15.44607 11.98487 4.100254 -19.37416 -1.818365 -93.15062 29.80672 24.1293 0 0 -19.36896 -0.7309686 13.25581 18.29739
0.2914627 109.3769 62.68875 -0.1927036 -9.729447 -2.874612 5.753905 3.102591 3.637832 -0 12.95171 -0 -7.492131 -8.563254 -5.710711 -1.361485 -8.610132 -6.04863 -0 54.0987 -0 -4.207098 -6.297116 19.01236 -1.796807 0.7350216 7.218265 0.1749703 8.534866 -4.539135 0.9502454 22.74807 7.104335 3.604352 -20.7317 7.090025 4.75529 -18.68401 11.52966 79.44975 38.12881 -9.002438 -0 0 15.56896 -26.47501 16.52802 14.90207 3.464714 -18.03461 -1.973495 -91.94451 26.92338 23.82203 0 0 -16.71136 -1.155462 11.58747 17.6367
-0.02444034 109.7467 68.30011 -0.1917953 -10.14642 -3.892013 5.246833 6.55735 4.597287 -0 13.84832 -0 -4.978659 -10.78661 -5.850589 -0.7351867 -12.19139 -5.778342 -0 48.47001 -0 -5.164273 -6.91682 20.13081 -2.434581 0.5236998 7.991849 -0.3455777 8.91768 -3.786287 1.362016 22.16392 7.112813 3.578503 -18.95235 7.17767 4.933408 -19.08304 11.75517 76.37512 35.21895 -4.98579 -0 0 18.91978 -30.08054 17.53766 16.99152 3.346287 -16.71143 -2.18931 -91.35973 24.52272 23.93237 0 0 -14.19924 -2.246575 9.895655 17.71594
-0.2122146 109.7118 74.13903 -0.1713525 -10.15296 -4.814142 4.52586 9.760102 5.483309 -0 15.76075 -0 -1.523207 -12.93301 -5.542607 -0.1878275 -15.8007 -5.422245 -0 41.83135 -0 -6.431094 -7.662602 20.66619 -2.509271 0.2751785 8.823175 -1.099363 9.366948 -3.008012 1.918888 21.4606 7.081997 3.394874 -17.17918 7.628075 4.628141 -19.80094 11.77363 75.2492 30.83444 -3.140122 -0 0 22.95581 -32.08635 18.15626 17.67344 3.703473 -15.473 -2.484867 -91.58466 23.0124 24.65902 0 0 -12.37373 -3.40542 7.947384 18.25295
-0.1920102 109.4209 80.35093 0.01446802 -9.772787 -5.520536 3.471333 12.545 6.165681 -0 19.10013 -0 2.597604 -14.25982 -4.815533 0.06058954 -18.98284 -5.036489 -0 35.14567 -0 -7.61374 -8.382386 20.41122 -1.904383 0.2911018 9.448395 -1.848351 9.679132 -2.285343 2.386603 20.9586 6.96621 2.918748 -16.14241 8.353154 3.456918 -20.76617 11.51387 76.58771 25.95583 -3.703949 -0 0 26.20717 -32.0025 17.88428 16.89688 4.271736 -14.47176 -2.864381 -92.51607 22.50424 25.95656 0 0 -11.55299 -3.920852 5.766879 18.73363
0.07525931 109.1603 86.98241 0.4327525 -9.144118 -5.903611 2.122049 14.61549 6.567504 -0 24.23605 -0 6.214743 -13.95928 -4.14548 -0.3022579 -20.89149 -4.958961 -0 29.79516 -0 -8.153503 -8.89305 19.53912 -1.017911 0.5816619 9.596468 -2.28311 9.769801 -1.813794 2.593826 20.92264 6.732127 2.246996 -16.12334 9.019521 1.682917 -21.61549 11.07207 79.50768 21.94408 -5.549236 -0 0 27.33162 -30.4044 16.55365 15.43262 4.702958 -13.94363 -3.244888 -93.6426 22.69572 27.23215 0 0 -11.42818 -3.639311 3.952259 18.83813
